<?xml version="1.0" standalone="no"?>
<!DOCTYPE svg PUBLIC "-//W3C//DTD SVG 20010904//EN"
 "http://www.w3.org/TR/2001/REC-SVG-20010904/DTD/svg10.dtd">
<svg version="1.0" xmlns="http://www.w3.org/2000/svg"
 width="1374.000000pt" height="1374.000000pt" viewBox="0 0 1374.000000 1374.000000"
 preserveAspectRatio="xMidYMid meet">
<metadata>
Created by potrace 1.11, written by Peter Selinger 2001-2013
</metadata>
<g transform="translate(0.000000,1374.000000) scale(0.100000,-0.100000)"
fill="#000000" stroke="none">
<path d="M6350 9562 c-674 -135 -1227 -247 -1229 -248 -3 -3 488 -2484 494
-2491 1 -2 2413 478 2471 492 21 5 15 35 -217 1197 -132 656 -244 1217 -250
1246 -8 38 -15 52 -27 51 -9 -1 -568 -111 -1242 -247z m490 -717 c63 -3 156
-7 205 -10 50 -2 153 -7 230 -11 250 -11 270 -12 278 -13 4 0 7 -11 7 -23 0
-24 -27 -58 -46 -58 -7 0 -17 -6 -21 -13 -4 -7 -26 -24 -48 -37 -22 -13 -42
-27 -45 -30 -3 -3 -22 -16 -43 -29 -59 -36 -67 -48 -60 -84 4 -17 12 -38 20
-45 7 -7 13 -19 13 -27 0 -7 4 -15 10 -17 5 -1 10 -19 11 -38 1 -33 8 -55 32
-108 8 -17 8 -29 -2 -44 -13 -22 -7 -87 12 -123 6 -11 23 -80 38 -153 l27
-134 -23 -24 c-18 -20 -27 -23 -47 -15 -13 5 -29 19 -35 32 -14 29 -33 121
-38 186 -2 27 -11 80 -20 120 l-16 72 -45 -17 c-24 -9 -44 -20 -44 -24 0 -4
-11 -8 -25 -8 -14 0 -25 -4 -25 -10 0 -5 -5 -10 -12 -10 -18 0 -88 -33 -88
-42 0 -4 -5 -8 -11 -8 -14 0 -116 -68 -143 -95 -12 -12 -37 -42 -56 -68 -41
-54 -66 -59 -115 -22 -18 14 -42 28 -54 30 -12 2 -27 7 -34 12 -13 8 -28 12
-67 18 -14 2 -41 7 -60 10 -19 4 -125 8 -235 9 l-200 1 -1 140 c0 77 -1 147
-2 156 -2 16 -108 40 -330 74 -27 4 -62 32 -62 50 0 11 119 75 140 75 5 0 10
5 10 10 0 6 9 10 19 10 11 0 23 5 26 10 3 6 15 10 26 10 10 0 19 5 19 10 0 6
6 10 14 10 7 0 34 11 60 25 26 14 54 25 62 25 7 0 14 5 14 10 0 6 9 10 20 10
11 0 20 5 20 10 0 6 5 10 11 10 10 0 56 21 219 99 30 14 57 29 58 34 2 4 15 7
28 7 13 0 24 4 24 8 0 4 23 16 50 27 28 11 50 23 50 27 0 11 39 15 115 11 39
-2 122 -5 185 -8z"/>
<path d="M7205 8520 c-47 -31 -65 -44 -87 -62 -12 -10 -27 -18 -35 -18 -7 0
-13 -4 -13 -9 0 -5 -21 -22 -47 -37 -27 -15 -53 -32 -60 -38 -33 -29 -43 -36
-51 -36 -5 0 -17 -9 -27 -20 -10 -11 -23 -20 -30 -20 -7 0 -20 -9 -30 -20 -10
-11 -24 -20 -32 -20 -7 0 -13 -4 -13 -8 0 -12 -46 -32 -71 -32 -12 0 -17 -4
-13 -11 11 -18 65 -1 124 39 30 20 61 43 68 49 7 7 19 13 27 13 7 0 15 7 19
15 3 8 11 15 18 15 8 0 28 13 46 29 17 16 41 32 52 36 11 3 20 11 20 16 0 5 7
9 15 9 8 0 23 9 32 20 10 11 23 20 30 20 7 0 13 3 13 8 0 4 18 18 40 32 22 13
40 30 40 37 0 16 1 17 -35 -7z"/>
<path d="M7195 7084 c-88 -18 -161 -33 -162 -34 -2 0 -3 -49 -3 -110 l0 -110
169 0 c93 0 176 -3 185 -6 14 -6 16 -84 16 -789 0 -705 -2 -783 -16 -789 -9
-3 -92 -6 -185 -6 l-169 0 0 -85 0 -85 975 0 975 0 0 1025 0 1025 -812 -1
-813 -1 -160 -34z m860 -436 c66 -161 376 -1014 373 -1031 -2 -18 -10 -22 -37
-22 l-34 0 -51 137 -51 138 -245 0 -245 0 -51 -138 -51 -137 -34 0 c-29 0 -34
4 -37 25 -2 21 347 983 379 1041 6 12 21 19 40 19 24 0 33 -6 44 -32z"/>
<path d="M7906 6242 c-55 -147 -101 -273 -104 -279 -3 -10 43 -13 208 -13 165
0 211 3 208 13 -26 78 -204 547 -208 547 -3 0 -50 -121 -104 -268z"/>
<path d="M115 4518 c-3 -7 -4 -177 -3 -378 l3 -365 215 0 c208 0 215 1 215 20
0 19 -8 20 -192 23 l-193 2 -2 353 c-3 326 -4 352 -21 355 -9 2 -19 -2 -22
-10z"/>
<path d="M3183 4518 c-20 -33 -270 -724 -266 -735 3 -7 13 -13 23 -13 13 0 27
25 55 100 l38 100 172 0 172 0 38 -100 c28 -75 42 -100 55 -100 10 0 20 6 22
13 4 10 -223 639 -262 725 -11 24 -34 29 -47 10z m102 -301 l72 -192 -73 -3
c-40 -2 -109 -2 -152 0 l-79 3 49 130 c27 72 60 161 74 198 15 38 29 65 32 62
3 -3 38 -92 77 -198z"/>
<path d="M6527 4524 c-4 -4 -7 -79 -7 -168 l0 -160 -32 31 c-55 52 -95 67
-173 68 -79 0 -123 -17 -175 -68 -79 -77 -103 -203 -56 -302 47 -101 122 -149
231 -149 77 0 130 20 175 69 l25 27 5 -49 c4 -40 8 -48 25 -48 20 0 20 7 20
375 0 330 -2 375 -15 378 -9 1 -19 0 -23 -4z m-123 -299 c72 -34 125 -137 112
-218 -26 -160 -196 -237 -318 -144 -108 83 -118 227 -23 323 66 66 144 79 229
39z"/>
<path d="M9195 4518 c-3 -7 -4 -177 -3 -378 l3 -365 215 0 c208 0 215 1 215
20 0 19 -8 20 -192 23 l-193 2 0 150 0 150 163 0 c164 0 192 6 180 36 -4 11
-40 14 -174 14 l-169 0 0 155 0 155 193 2 c184 3 192 4 192 23 0 19 -8 20
-213 23 -165 2 -214 0 -217 -10z"/>
<path d="M11765 4518 c-3 -7 -4 -177 -3 -378 3 -357 3 -365 23 -365 17 0 21 8
25 48 l5 49 25 -27 c45 -49 98 -69 175 -69 109 0 184 48 231 149 60 127 2 289
-125 352 -53 26 -164 24 -216 -4 -22 -12 -51 -33 -65 -48 l-25 -27 -5 164 c-4
145 -7 163 -23 166 -9 2 -19 -2 -22 -10z m356 -303 c59 -39 90 -93 96 -167 4
-53 1 -70 -19 -108 -51 -95 -154 -140 -243 -106 -94 36 -139 101 -140 201 -1
166 174 268 306 180z"/>
<path d="M11454 4456 c-11 -28 0 -61 21 -61 16 0 20 7 20 35 0 25 -5 36 -18
38 -9 2 -20 -3 -23 -12z"/>
<path d="M12474 4456 c-11 -28 0 -61 21 -61 16 0 20 7 20 35 0 25 -5 36 -18
38 -9 2 -20 -3 -23 -12z"/>
<path d="M849 4291 c-106 -33 -189 -142 -189 -250 0 -180 176 -314 339 -256
73 26 146 98 134 133 -8 22 -30 13 -74 -32 -71 -71 -143 -83 -230 -38 -58 29
-101 86 -114 149 l-7 33 229 2 228 3 3 29 c5 45 -27 115 -74 162 -61 61 -165
89 -245 65z m125 -52 c48 -13 111 -72 131 -121 l15 -38 -201 0 -201 0 7 27
c13 55 74 115 133 133 39 12 71 11 116 -1z"/>
<path d="M1509 4291 c-106 -33 -189 -142 -189 -250 0 -180 176 -314 339 -256
73 26 146 98 134 133 -8 22 -30 13 -74 -32 -71 -71 -143 -83 -230 -38 -58 29
-101 86 -114 149 l-7 33 229 2 228 3 3 29 c5 45 -27 115 -74 162 -61 61 -165
89 -245 65z m125 -52 c48 -13 111 -72 131 -121 l15 -38 -201 0 -201 0 7 27
c13 55 74 115 133 133 39 12 71 11 116 -1z"/>
<path d="M2005 4288 c-3 -7 -4 -126 -3 -263 3 -242 4 -250 23 -250 19 0 20 8
25 140 4 120 8 146 28 182 46 88 126 152 189 153 26 0 35 12 27 35 -6 14 -15
16 -51 11 -59 -8 -97 -29 -148 -83 l-44 -46 -3 64 c-2 51 -6 64 -21 67 -9 2
-19 -3 -22 -10z"/>
<path d="M3655 4288 c-3 -7 -4 -175 -3 -373 3 -352 3 -360 23 -360 19 0 20 8
25 158 l5 159 25 -27 c45 -49 98 -69 175 -69 80 0 129 20 181 76 55 57 68 95
69 183 0 90 -15 131 -67 184 -54 55 -104 75 -183 75 -77 0 -130 -20 -175 -69
l-25 -27 -5 48 c-4 36 -10 50 -23 52 -9 2 -19 -3 -22 -10z m308 -49 c21 -6 56
-26 77 -45 133 -121 61 -350 -116 -370 -71 -8 -148 33 -189 100 -56 92 -34
218 49 281 57 43 110 53 179 34z"/>
<path d="M4365 4288 c-3 -7 -4 -126 -3 -263 3 -242 4 -250 23 -250 19 0 20 8
25 140 4 120 8 146 28 182 46 88 126 152 189 153 26 0 35 12 27 35 -6 14 -15
16 -51 11 -59 -8 -97 -29 -148 -83 l-44 -46 -3 64 c-2 51 -6 64 -21 67 -9 2
-19 -3 -22 -10z"/>
<path d="M4929 4291 c-106 -33 -189 -142 -189 -250 0 -180 176 -314 339 -256
73 26 146 98 134 133 -8 22 -30 13 -74 -32 -71 -71 -143 -83 -230 -38 -58 29
-101 86 -114 149 l-7 33 229 2 228 3 3 29 c5 45 -27 115 -74 162 -61 61 -165
89 -245 65z m125 -52 c48 -13 111 -72 131 -121 l15 -38 -201 0 -201 0 7 27
c13 55 74 115 133 133 39 12 71 11 116 -1z"/>
<path d="M5447 4294 c-11 -11 -8 -512 2 -518 5 -4 16 -3 25 0 14 5 16 30 16
172 0 145 2 171 20 206 41 85 138 117 220 74 76 -41 84 -65 90 -273 5 -172 6
-180 25 -180 19 0 20 8 23 170 4 199 -3 231 -61 289 -80 79 -193 87 -284 20
l-32 -24 -3 32 c-3 31 -25 48 -41 32z"/>
<path d="M6939 4291 c-106 -33 -189 -142 -189 -250 0 -180 176 -314 339 -256
73 26 146 98 134 133 -8 22 -30 13 -74 -32 -71 -71 -143 -83 -230 -38 -58 29
-101 86 -114 149 l-7 33 229 2 228 3 3 29 c5 45 -27 115 -74 162 -61 61 -165
89 -245 65z m125 -52 c48 -13 111 -72 131 -121 l15 -38 -201 0 -201 0 7 27
c13 55 74 115 133 133 39 12 71 11 116 -1z"/>
<path d="M7425 4288 c-3 -7 -4 -126 -3 -263 3 -242 4 -250 23 -250 19 0 20 8
25 140 4 120 8 146 28 182 46 88 126 152 189 153 26 0 35 12 27 35 -6 14 -15
16 -51 11 -59 -8 -97 -29 -148 -83 l-44 -46 -3 64 c-2 51 -6 64 -21 67 -9 2
-19 -3 -22 -10z"/>
<path d="M8187 4294 c-4 -4 -7 -86 -7 -183 0 -157 2 -179 21 -218 57 -118 198
-155 313 -83 45 29 46 29 46 7 0 -43 -22 -98 -52 -133 -56 -63 -125 -84 -208
-63 -44 11 -53 11 -60 -1 -12 -19 4 -34 49 -49 119 -39 265 35 305 156 14 42
16 89 14 309 -3 251 -4 259 -23 259 -19 0 -20 -8 -25 -180 -3 -113 -10 -188
-17 -201 -25 -43 -81 -82 -128 -90 -37 -5 -54 -2 -93 18 -78 40 -86 63 -92
273 -4 152 -7 180 -20 183 -9 1 -19 0 -23 -4z"/>
<path d="M9905 4285 c-89 -34 -121 -102 -83 -181 15 -31 73 -60 158 -79 89
-20 138 -47 146 -82 11 -42 -7 -74 -56 -101 -58 -31 -118 -25 -201 19 -43 23
-63 29 -71 21 -17 -17 -3 -38 45 -67 98 -57 209 -56 284 1 42 32 56 58 56 106
0 75 -52 118 -177 145 -93 20 -140 48 -144 85 -4 38 12 63 52 82 51 24 105 20
167 -13 57 -30 79 -30 79 -2 0 11 -19 28 -51 45 -62 34 -146 43 -204 21z"/>
<path d="M10507 4286 c-100 -37 -159 -103 -179 -198 -24 -115 28 -225 133
-283 47 -26 64 -30 129 -30 61 0 85 5 125 26 52 26 69 54 40 65 -9 4 -34 -3
-55 -15 -89 -50 -188 -36 -261 38 -77 77 -88 171 -30 263 60 94 184 123 294
68 35 -17 50 -21 58 -13 51 51 -157 115 -254 79z"/>
<path d="M10985 4288 c-3 -7 -4 -126 -3 -263 3 -242 4 -250 23 -250 19 0 20 8
25 140 4 120 8 146 28 182 46 88 126 152 189 153 26 0 35 12 27 35 -6 14 -15
16 -51 11 -59 -8 -97 -29 -148 -83 l-44 -46 -3 64 c-2 51 -6 64 -21 67 -9 2
-19 -3 -22 -10z"/>
<path d="M11462 4292 c-9 -7 -12 -66 -10 -263 3 -246 4 -254 23 -254 19 0 20
7 20 259 0 164 -4 260 -10 263 -5 1 -16 -1 -23 -5z"/>
<path d="M12482 4292 c-9 -7 -12 -66 -10 -263 3 -246 4 -254 23 -254 19 0 20
7 20 259 0 164 -4 260 -10 263 -5 1 -16 -1 -23 -5z"/>
<path d="M12785 4288 c-3 -7 -4 -126 -3 -263 3 -242 4 -250 23 -250 19 0 20 8
25 140 4 120 8 146 28 182 46 88 126 152 189 153 26 0 35 12 27 35 -6 14 -15
16 -51 11 -59 -8 -97 -29 -148 -83 l-44 -46 -3 64 c-2 51 -6 64 -21 67 -9 2
-19 -3 -22 -10z"/>
<path d="M2373 3863 c-18 -7 -16 -68 2 -83 23 -19 18 -39 -15 -70 -47 -44 -33
-70 19 -34 30 22 51 73 51 127 0 56 -19 76 -57 60z"/>
</g>
</svg>
