<?xml version="1.0" standalone="no"?>
<!DOCTYPE svg PUBLIC "-//W3C//DTD SVG 20010904//EN"
 "http://www.w3.org/TR/2001/REC-SVG-20010904/DTD/svg10.dtd">
<svg version="1.0" xmlns="http://www.w3.org/2000/svg"
 width="512.000000pt" height="512.000000pt" viewBox="0 0 512.000000 512.000000"
 preserveAspectRatio="xMidYMid meet">
<metadata>
Created by potrace 1.11, written by Peter Selinger 2001-2013
</metadata>
<g transform="translate(0.000000,512.000000) scale(0.100000,-0.100000)"
fill="#000000" stroke="none">
<path d="M2375 5114 c-539 -55 -963 -216 -1365 -518 -119 -89 -337 -300 -434
-420 -235 -289 -412 -644 -501 -1006 -53 -216 -70 -364 -70 -610 0 -422 81
-766 266 -1139 134 -272 284 -475 510 -696 209 -203 400 -338 661 -465 461
-225 924 -298 1488 -235 87 10 256 48 370 82 308 93 615 255 870 459 109 88
296 275 384 384 161 202 324 489 411 724 47 128 101 346 127 516 29 185 31
527 4 715 -66 467 -259 911 -552 1271 -97 120 -315 331 -434 420 -350 263
-747 431 -1175 495 -125 19 -463 33 -560 23z m297 -1065 c98 -20 196 -75 273
-153 82 -83 118 -145 145 -252 24 -91 25 -154 5 -247 -44 -211 -213 -377 -430
-422 -280 -58 -567 119 -640 396 -19 70 -19 210 0 282 51 195 215 350 420 396
57 13 165 13 227 0z m-575 -1208 c247 -78 455 -141 462 -141 10 0 856 257 939
285 9 3 12 -47 12 -229 l0 -233 -49 -6 c-112 -13 -221 -93 -269 -195 -22 -47
-27 -71 -27 -137 0 -71 4 -89 33 -147 51 -104 151 -177 265 -193 l47 -7 0
-254 0 -253 -82 -25 c-46 -14 -260 -77 -476 -141 l-393 -115 -372 110 c-205
61 -416 125 -469 141 l-98 30 0 253 0 253 48 7 c107 14 210 86 260 181 24 45
27 61 27 150 0 90 -3 105 -28 153 -51 98 -154 173 -257 188 -25 4 -48 12 -52
18 -9 13 -10 401 -2 434 4 14 12 21 20 18 7 -3 214 -68 461 -145z m-358 -426
c90 -45 140 -129 141 -236 1 -285 -384 -365 -506 -104 -35 73 -32 145 6 222
68 136 223 187 359 118z m1886 5 c49 -22 100 -71 128 -124 17 -32 22 -59 22
-116 0 -57 -5 -84 -22 -116 -71 -134 -223 -185 -356 -120 -103 50 -151 134
-145 251 3 59 9 81 33 121 72 116 216 160 340 104z"/>
</g>
</svg>
